<svg version="1.1" id="Layer_1" xmlns="http://www.w3.org/2000/svg" xmlns:xlink="http://www.w3.org/1999/xlink" x="0px" y="0px"
	 width="100%" viewBox="0 0 344 346" enable-background="new 0 0 344 346" xml:space="preserve">
<path fill="#FDFEFE" opacity="1.000000" stroke="none" 
	d="
M191.000000,347.000000 
	C127.333344,347.000000 64.166687,347.000000 1.000025,347.000000 
	C1.000017,231.666702 1.000017,116.333397 1.000008,1.000072 
	C115.666618,1.000048 230.333237,1.000048 344.999878,1.000024 
	C344.999939,116.333260 344.999939,231.666519 344.999969,346.999878 
	C293.833344,347.000000 242.666672,347.000000 191.000000,347.000000 
M313.775513,328.036957 
	C314.003235,327.641907 314.230957,327.246887 314.705261,325.960815 
	C314.705261,292.371674 314.705261,258.782501 314.705261,225.366791 
	C305.792206,225.366791 297.372131,225.366791 288.490723,225.366791 
	C288.490723,251.199295 288.490723,276.600952 288.490723,302.067871 
	C227.468338,302.067871 166.911636,302.067871 106.438362,302.067871 
	C106.234360,301.483490 106.035706,301.179993 106.035530,300.876343 
	C106.006599,250.727310 105.965904,200.578201 106.102592,150.429596 
	C106.106682,148.930923 107.631050,146.844604 109.028229,146.030838 
	C128.298599,134.806870 147.703659,123.814270 166.983566,112.606483 
	C169.885422,110.919586 172.036041,110.683403 175.101410,112.477013 
	C194.346313,123.737587 213.695450,134.822983 233.129120,145.754776 
	C236.021667,147.381882 236.373596,149.364594 236.367233,152.204727 
	C236.297852,183.194077 236.322311,214.183655 236.321228,245.173157 
	C236.321167,246.801544 236.321213,248.429916 236.321213,250.618301 
	C234.192947,250.618301 232.576233,250.617386 230.959503,250.618423 
	C212.299225,250.630295 193.638855,250.612961 174.978683,250.664337 
	C161.325912,250.701935 147.673386,250.830002 133.393997,250.772507 
	C133.030411,251.175720 132.666824,251.578934 132.106659,252.902695 
	C132.137512,260.253326 132.168365,267.603943 132.066711,275.599457 
	C132.743240,275.878326 133.419754,276.157196 135.003510,276.608398 
	C154.989685,276.622192 174.975922,276.667267 194.962036,276.641388 
	C216.942703,276.612915 238.923309,276.519165 261.350739,276.713501 
	C261.669739,276.119873 261.988739,275.526245 262.437378,274.011230 
	C262.442566,228.392441 262.417358,182.773605 262.518646,137.155029 
	C262.525696,133.978302 261.742096,132.132278 258.805908,130.465195 
	C231.187286,114.784103 203.629929,98.992783 176.195572,82.992096 
	C172.305618,80.723343 169.474716,81.018158 165.781982,83.174911 
	C147.259033,93.993271 128.557205,104.504799 109.991592,115.250893 
	C99.977234,121.047371 90.109947,127.097961 79.915154,133.485214 
	C79.953476,133.654755 79.991791,133.824280 79.837677,134.914948 
	C79.826385,197.952209 79.814125,260.989471 79.812614,324.026733 
	C79.812592,325.018738 79.944801,326.010712 79.969978,327.615753 
	C80.314949,327.750977 80.659920,327.886200 81.925140,328.211945 
	C157.958618,328.222229 233.992096,328.233337 310.025574,328.233032 
	C311.016357,328.233032 312.007111,328.087585 313.775513,328.036957 
M288.877228,147.496140 
	C288.878571,151.494827 288.686371,155.508789 289.000092,159.482803 
	C289.093292,160.663269 290.576355,162.672409 291.477081,162.703140 
	C299.080902,162.962585 306.697388,162.851135 314.648315,162.851135 
	C314.751251,160.630386 314.890381,159.007156 314.891907,157.383774 
	C314.907410,140.888153 314.791687,124.391258 314.981201,107.897804 
	C315.025116,104.075287 313.807404,101.955482 310.425018,100.028252 
	C265.582184,74.477524 220.810242,48.801834 176.104218,23.012415 
	C172.457642,20.908836 169.681290,20.947422 166.070206,23.029251 
	C121.362007,48.803902 76.596161,74.479012 31.758579,100.027817 
	C28.404587,101.938950 27.133045,103.993568 27.151129,107.849228 
	C27.299616,139.506836 27.237328,171.165436 27.234653,202.823730 
	C27.232725,225.651016 27.337234,248.479355 27.121212,271.304657 
	C27.079020,275.762909 28.443708,277.214020 32.813610,276.921326 
	C37.790157,276.588013 42.832439,276.516663 47.797062,276.926300 
	C52.794086,277.338654 53.880318,275.344788 53.866142,270.669556 
	C53.717102,221.516327 53.832390,172.362320 53.680984,123.209129 
	C53.668034,119.005287 54.929180,116.655792 58.595093,114.576988 
	C94.653069,94.129860 130.631104,73.541222 166.558014,52.864483 
	C169.645462,51.087582 172.042938,50.745331 175.252579,52.591858 
	C211.905472,73.678513 248.618835,94.660324 285.365570,115.583183 
	C288.056274,117.115227 288.996216,118.986794 288.934113,122.005524 
	C288.766205,130.166580 288.876862,138.333359 288.877228,147.496140 
M178.748489,181.077469 
	C182.891281,181.075531 187.044022,181.228760 191.170044,180.964767 
	C192.228485,180.897034 193.980011,179.602814 194.082672,178.717743 
	C194.557755,174.622025 194.767029,170.464111 194.608444,166.346313 
	C194.563660,165.183212 193.008072,163.162262 192.048477,163.102951 
	C186.838715,162.780914 181.598587,162.950027 175.975128,162.950027 
	C175.975128,168.668121 175.889694,173.613556 176.057434,178.550385 
	C176.086105,179.394104 177.196945,180.201050 178.748489,181.077469 
M165.866730,163.848267 
	C164.466232,163.539734 163.071457,162.993317 161.664337,162.959412 
	C147.338318,162.614075 147.408020,162.635544 147.798416,176.997635 
	C147.876480,179.869644 148.527618,181.316971 151.708328,181.126999 
	C155.182800,180.919525 158.687180,180.942032 162.164154,181.130219 
	C165.115341,181.289932 166.422150,180.350250 166.254852,177.211060 
	C166.034225,173.071152 166.160797,168.912750 165.866730,163.848267 
M166.209564,195.611115 
	C166.088608,194.172882 165.967667,192.734665 165.809235,190.850601 
	C160.494858,190.850601 155.529373,190.738693 150.577850,190.951660 
	C149.664795,190.990936 148.077927,192.313141 148.043777,193.097260 
	C147.816116,198.325165 147.925659,203.567780 147.925659,208.758148 
	C154.430252,208.758148 160.023727,208.758148 166.211914,208.758148 
	C166.211914,204.491440 166.211914,200.539505 166.209564,195.611115 
M191.299179,209.077820 
	C192.258438,208.416946 194.009232,207.799820 194.048584,207.088074 
	C194.305511,202.440567 194.288452,197.768707 194.103241,193.115082 
	C194.072510,192.343155 192.800598,191.002151 192.064911,190.975998 
	C186.823120,190.789749 181.571655,190.876663 176.398514,190.876663 
	C176.398514,197.407440 176.398514,203.113998 176.398514,209.088440 
	C181.359283,209.088440 185.846649,209.088440 191.299179,209.077820 
z"/>
<path fill="#48494E" opacity="1.000000" stroke="none" 
	d="
M134.020752,250.917725 
	C147.673386,250.830002 161.325912,250.701935 174.978683,250.664337 
	C193.638855,250.612961 212.299225,250.630295 230.959503,250.618423 
	C232.576233,250.617386 234.192947,250.618301 236.321213,250.618301 
	C236.321213,248.429916 236.321167,246.801544 236.321228,245.173157 
	C236.322311,214.183655 236.297852,183.194077 236.367233,152.204727 
	C236.373596,149.364594 236.021667,147.381882 233.129120,145.754776 
	C213.695450,134.822983 194.346313,123.737587 175.101410,112.477013 
	C172.036041,110.683403 169.885422,110.919586 166.983566,112.606483 
	C147.703659,123.814270 128.298599,134.806870 109.028229,146.030838 
	C107.631050,146.844604 106.106682,148.930923 106.102592,150.429596 
	C105.965904,200.578201 106.006599,250.727310 106.035530,300.876343 
	C106.035706,301.179993 106.234360,301.483490 106.438362,302.067871 
	C166.911636,302.067871 227.468338,302.067871 288.490723,302.067871 
	C288.490723,276.600952 288.490723,251.199295 288.490723,225.366791 
	C297.372131,225.366791 305.792206,225.366791 314.705261,225.366791 
	C314.705261,258.782501 314.705261,292.371674 314.282776,326.528503 
	C313.572815,327.400757 313.285339,327.705353 312.997894,328.009979 
	C312.007111,328.087585 311.016357,328.233032 310.025574,328.233032 
	C233.992096,328.233337 157.958618,328.222229 81.363129,327.892029 
	C80.607887,327.287537 80.345947,327.097748 80.015297,327.002716 
	C79.944801,326.010712 79.812592,325.018738 79.812614,324.026733 
	C79.814125,260.989471 79.826385,197.952209 80.093719,134.380280 
	C80.423447,133.755768 80.578171,133.624390 80.557037,133.583160 
	C80.456314,133.386658 80.307808,133.214630 80.176308,133.033905 
	C90.109947,127.097961 99.977234,121.047371 109.991592,115.250893 
	C128.557205,104.504799 147.259033,93.993271 165.781982,83.174911 
	C169.474716,81.018158 172.305618,80.723343 176.195572,82.992096 
	C203.629929,98.992783 231.187286,114.784103 258.805908,130.465195 
	C261.742096,132.132278 262.525696,133.978302 262.518646,137.155029 
	C262.417358,182.773605 262.442566,228.392441 262.124390,274.579376 
	C261.508911,275.582977 261.206421,276.018402 260.903931,276.453857 
	C238.923309,276.519165 216.942703,276.612915 194.962036,276.641388 
	C174.975922,276.667267 154.989685,276.622192 134.459686,276.281921 
	C133.343658,275.621826 132.771439,275.288177 132.199219,274.954559 
	C132.168365,267.603943 132.137512,260.253326 132.474045,252.403961 
	C133.234543,251.576065 133.627640,251.246887 134.020752,250.917725 
z"/>
<path fill="#59CCF7" opacity="1.000000" stroke="none" 
	d="
M288.877136,146.997009 
	C288.876862,138.333359 288.766205,130.166580 288.934113,122.005524 
	C288.996216,118.986794 288.056274,117.115227 285.365570,115.583183 
	C248.618835,94.660324 211.905472,73.678513 175.252579,52.591858 
	C172.042938,50.745331 169.645462,51.087582 166.558014,52.864483 
	C130.631104,73.541222 94.653069,94.129860 58.595093,114.576988 
	C54.929180,116.655792 53.668034,119.005287 53.680984,123.209129 
	C53.832390,172.362320 53.717102,221.516327 53.866142,270.669556 
	C53.880318,275.344788 52.794086,277.338654 47.797062,276.926300 
	C42.832439,276.516663 37.790157,276.588013 32.813610,276.921326 
	C28.443708,277.214020 27.079020,275.762909 27.121212,271.304657 
	C27.337234,248.479355 27.232725,225.651016 27.234653,202.823730 
	C27.237328,171.165436 27.299616,139.506836 27.151129,107.849228 
	C27.133045,103.993568 28.404587,101.938950 31.758579,100.027817 
	C76.596161,74.479012 121.362007,48.803902 166.070206,23.029251 
	C169.681290,20.947422 172.457642,20.908836 176.104218,23.012415 
	C220.810242,48.801834 265.582184,74.477524 310.425018,100.028252 
	C313.807404,101.955482 315.025116,104.075287 314.981201,107.897804 
	C314.791687,124.391258 314.907410,140.888153 314.891907,157.383774 
	C314.890381,159.007156 314.751251,160.630386 314.648315,162.851135 
	C306.697388,162.851135 299.080902,162.962585 291.477081,162.703140 
	C290.576355,162.672409 289.093292,160.663269 289.000092,159.482803 
	C288.686371,155.508789 288.878571,151.494827 288.877136,146.997009 
z"/>
<path fill="#5BCAF4" opacity="1.000000" stroke="none" 
	d="
M178.278168,181.051239 
	C177.196945,180.201050 176.086105,179.394104 176.057434,178.550385 
	C175.889694,173.613556 175.975128,168.668121 175.975128,162.950027 
	C181.598587,162.950027 186.838715,162.780914 192.048477,163.102951 
	C193.008072,163.162262 194.563660,165.183212 194.608444,166.346313 
	C194.767029,170.464111 194.557755,174.622025 194.082672,178.717743 
	C193.980011,179.602814 192.228485,180.897034 191.170044,180.964767 
	C187.044022,181.228760 182.891281,181.075531 178.278168,181.051239 
z"/>
<path fill="#5ACBF5" opacity="1.000000" stroke="none" 
	d="
M166.002411,164.305283 
	C166.160797,168.912750 166.034225,173.071152 166.254852,177.211060 
	C166.422150,180.350250 165.115341,181.289932 162.164154,181.130219 
	C158.687180,180.942032 155.182800,180.919525 151.708328,181.126999 
	C148.527618,181.316971 147.876480,179.869644 147.798416,176.997635 
	C147.408020,162.635544 147.338318,162.614075 161.664337,162.959412 
	C163.071457,162.993317 164.466232,163.539734 166.002411,164.305283 
z"/>
<path fill="#58CAF4" opacity="1.000000" stroke="none" 
	d="
M166.210739,196.099335 
	C166.211914,200.539505 166.211914,204.491440 166.211914,208.758148 
	C160.023727,208.758148 154.430252,208.758148 147.925659,208.758148 
	C147.925659,203.567780 147.816116,198.325165 148.043777,193.097260 
	C148.077927,192.313141 149.664795,190.990936 150.577850,190.951660 
	C155.529373,190.738693 160.494858,190.850601 165.809235,190.850601 
	C165.967667,192.734665 166.088608,194.172882 166.210739,196.099335 
z"/>
<path fill="#59C9F3" opacity="1.000000" stroke="none" 
	d="
M190.816589,209.083130 
	C185.846649,209.088440 181.359283,209.088440 176.398514,209.088440 
	C176.398514,203.113998 176.398514,197.407440 176.398514,190.876663 
	C181.571655,190.876663 186.823120,190.789749 192.064911,190.975998 
	C192.800598,191.002151 194.072510,192.343155 194.103241,193.115082 
	C194.288452,197.768707 194.305511,202.440567 194.048584,207.088074 
	C194.009232,207.799820 192.258438,208.416946 190.816589,209.083130 
z"/>
<path fill="#6B6B6D" opacity="1.000000" stroke="none" 
	d="
M132.132965,275.277008 
	C132.771439,275.288177 133.343658,275.621826 134.006073,276.195770 
	C133.419754,276.157196 132.743240,275.878326 132.132965,275.277008 
z"/>
<path fill="#6B6B6D" opacity="1.000000" stroke="none" 
	d="
M261.127319,276.583679 
	C261.206421,276.018402 261.508911,275.582977 262.059570,275.040070 
	C261.988739,275.526245 261.669739,276.119873 261.127319,276.583679 
z"/>
<path fill="#3D3D40" opacity="1.000000" stroke="none" 
	d="
M133.707367,250.845123 
	C133.627640,251.246887 133.234543,251.576065 132.572327,251.943695 
	C132.666824,251.578934 133.030411,251.175720 133.707367,250.845123 
z"/>
<path fill="#3D3D42" opacity="1.000000" stroke="none" 
	d="
M80.045731,133.259552 
	C80.307808,133.214630 80.456314,133.386658 80.557037,133.583160 
	C80.578171,133.624390 80.423447,133.755768 80.189934,133.919708 
	C79.991791,133.824280 79.953476,133.654755 80.045731,133.259552 
z"/>
<path fill="#3D3D42" opacity="1.000000" stroke="none" 
	d="
M79.992638,327.309235 
	C80.345947,327.097748 80.607887,327.287537 80.903008,327.796783 
	C80.659920,327.886200 80.314949,327.750977 79.992638,327.309235 
z"/>
<path fill="#3D3D42" opacity="1.000000" stroke="none" 
	d="
M313.386719,328.023468 
	C313.285339,327.705353 313.572815,327.400757 314.159485,326.973999 
	C314.230957,327.246887 314.003235,327.641907 313.386719,328.023468 
z"/>
</svg>